/* XPM */
static const char *team_logo_xpm[] = {
/* columns rows colors chars-per-pixel */
"192 48 64 1",
"  c #1D1A2A",
". c #303351",
"X c #263568",
"o c #374966",
"O c #4C4A58",
"+ c #50556C",
"@ c #556676",
"# c #6E7077",
"$ c #625D6C",
"% c #443C4C",
"& c #355A93",
"* c #546F90",
"= c #6E778B",
"- c #546F9D",
"; c #4679C1",
": c #847D90",
"> c #768891",
", c #5389B3",
"< c #718FAC",
"1 c #719EB2",
"2 c #73AED1",
"3 c #629AD2",
"4 c #7BD5EC",
"5 c #7BCDDE",
"6 c #3C86C3",
"7 c #8A8E94",
"8 c #8B99A9",
"9 c #8FA9B4",
"0 c #A7ACB3",
"q c #A69DA2",
"w c #90B6CB",
"e c #A8BBCB",
"r c #88B6E4",
"t c #96C7D5",
"y c #ACCBD5",
"u c #88D6ED",
"i c #96DAEC",
"p c #89DAF1",
"a c #97DCF2",
"s c #92CBE6",
"d c #A7DAE9",
"f c #A6DEF2",
"g c #B3D7E9",
"h c #99E2EE",
"j c #8CE3F2",
"k c #99E4F4",
"l c #93EBF3",
"z c #A7E2EE",
"x c #A8E5F4",
"c c #B7E8F5",
"v c #B9F3FC",
"b c #AFEBF3",
"n c #CAD2D4",
"m c #C5DBE6",
"M c #C6EBF6",
"N c #D3EDF8",
"B c #C8F4FB",
"V c #D8F5FB",
"C c #CCE6EB",
"Z c #E5F8FB",
"A c #F8FDFE",
"S c #E4EEF0",
"D c #C89F8F",
"F c #BA9578",
/* pixels */
"ccgMccMNCNMNMMMNMMcMMMMNCCMMcgMMmNNMMmcMMMMccMMMgMNNmMmMcMgccgcccMgfcfffxgcccMcmmcMccfffaauuuupuausauspasfpasappssaapsapppspsaafppsuuupuuu4uu44uuuuuu44u444u444444444444j4ujlakjjaklxklkjkjklljk",
"ccccMgcMMMMNMMMNMmmMMMMMNCNgMMMMMNNNMMmMcmmMmcMMMMMNMMMfgcMcfcgcffcffffffccgfcgcccgccffaasuuuppuusaaaaapiaaaaapppupuuppsspppaafapuppuuuupuuupuuuupppu44444pu44444444444ljjjujj4jjjjkkkkkkklllbll",
"McccMggcMcMMMNMMMMcMMCmNMMcgswr22wwrgMMmcmccMccMMMMNMcccccMMcgcfffffahifffffcgcccccggffaaauuusuuusaaaaaaauuaauapuapuupuupspufasauuppuuuuuuuuuuuuuppuu4444p4p444444444jju4ujj4jjjjjjkxxlllkjlllbl",
"cmMMMcffgcMMMmmMMMCgmNNcdr333;,6,;;;&;3wMMMggcMMMmMMMMMcMMNMcgccfffaffifadfcfffcccfccffaasupuauupuuupsaaauapppusapupuuppuup4suupuupaupuuuuuuupu4pupp4uu444p4444444444puujjujjhijljklllkkllllllll",
"MMcMccfffcMMMcMMcmmCNmsr33rsgMMMVBNgw3&&*tcccMMcMmNNSNMMCMMMccgccfffffaaifffffgcxgccffxiapapuppuu4uuuupappaiupspppppupppuuuupup4puuppppppppsuppuuaasu44444p4u44pj444jjpjujujjkxkkjkkllllkllbvlll",
"MMMMcggaifMcmgMCCCNMg232iMggrms32,1MgMce*X*dMcmMMNMNVNMgccMmgcfcfffffaaiizfiffgffcfffxxdaaaspppuuuupspppappaaaaauus4puruu4uuppppppapaapsappuupppufauu444pup44p44j444jpjujjjhljhkkklxxlbllkvlxvvl",
"MMMMcgfcffcfcgcMMNM432fMs<2-<M23&-9c9=sgvw+owMCMMMMMNMMcgbcbfffffffffaiaafiaaffxxfffffaaiipuppsuuuupspspsappauaaasuupu444u4uppppuuusuuppspppupafauuup4p44uppp4444jjjjujjjjjjjjjjllllllllklblllll",
"MMMMcfccxapffcMmNMr3aBg33,rg9Ng8rsMBw2<-tBv<.<MMMMMMMccMccgccdcfffffaaaihhiiiaadxfffbxiauaaaaffauppppppappapsupusppuuu4u4up4uuspuupppupppupuuupfsuup4p4pppuj4jjujj4pujujhhkjjlklllxxxlblxlllblbl",
"MNMMcgcMfp4afcMNcr3gbs,;*eeNMMcwgBMMyd-<w=dBwX-MgMMcccfcccMMgzfbxdzaaiaaihaiapafffkdafiiapasafcfpuuuppappuusuu4uuuppu44ur4p4usupuuuppappppuuuusuupuu44puppppppjjpppjkpjjujjjlkkklkkblllbvlllvlll",
"MMMMcccffp4pfcNc23MC3,,*gNBMcs--@1cMMcyw=w<sVe.<MfcgccfcMMNNccxffakziiiaakkiaiakaffiaiiiaaaasaaauuprsuu4uappu44u444p4uup444u4pupuupppupupuauuuppuuppuuppu4ppppupjjjpppjjullhklllkzkllxblllbvllbv",
"NNNNMMgfaa44fMNr3cg23<9CNMMa<-tMd,@2MMMMe=-9yMw.9cfccfzccMNMczfffahafkkaiaiiijiikaaipaaiaaapaasappppappppapppapapaapppuupupppupupapaappppipuippjppppppp4ppp4ppppjjppjjjjljjkklklxlllvblllbllvbll",
"NNNNZMMciapagNs3gM3,-wVCcc2-1cBcbc5*-yMcMce+@sB<XscffxzggcCczfzfzdfazt95aiaiiiuiizafaafaffaafaaaaaaaaaaaaafaaaffafxfafaiaapaaaapaaaaaasakakiaaippuuuppjjppajjjppppajpkkjhlhlkkxxlbd1ilbbbvvlblvl",
"NmMMMMMcfdfcCf3sNr3<0Vvc2,,dVc3663bB1@<zMMg<*>zv-+ccffxcccccffbxkadkwq$=kipiaipiaxkaafaafxs0rgfswsffaxfffffffxffffffxxbffxxfffffffffaadesxzaxaaifajppapippe<5ajjjakjkkkjhhht0w98iz# tllvblvlvblv",
"MMMgcMMMMgMCc53Br33mVCs3,sBBx,3tt3,gZg*+wMMM-=8xsX9cfcfccgbcczxxzzxke7@1ljalapiaaaaafafewkrq8sae$9vxxxfcccccccfccccMgcccMcccfcccccydxgn7<bxxfakffaaaapjiau7O2jpjjkjjkkkkhlt7$w#:w* >vbvvbllvlbbl",
"MMMMMMMMMCCMa3pv36sNf2-wMBBk62MBBvt,fVVt@@wBr<-wM=&Mxxfccbcfgzzzfysxs>@+=>>tkiiaakfaafeqqsf080r:$tbxfcxcfcxfggmmn0087ycccccfccfcfy87feq#<bafzkaxkaaahaihaa= 2lijkpjklkklhx9O.tw=+.1bvbbllvvbbbbb",
"MMMMMgcccgCv23x23,d2,3fBk33,2vctyMv2,3rcM9+-g<*9csXwcccfxgxxbzzxd08=.   .$ *kiiifakaae7897e88:8+=xxxcxxcccg0qqqq:###=yccccccfcxcge$1bw=+=xazxxaxxakkkiaubf#%slhpjkkkkkxxxlh>2vr=O1hdhvbbvvlvvvlb",
"MMMMcMcccgMc3rz,;zr-tvBs62sfvBzo-NNNfs3,sBM@<g<fcc-*Mfxbzxcfxgbf8#. .o>12o oljaxffaayqwa8::$$:::xdfbxcxcccgw88w9:wygccccccccbccxg:@scv8+=xxxfkfaxakkhaaixt7*lilhjkkkkkbxzxtw9<=.. %$+>vvbbbvBbbb",
"MccMMMMCCMNp3by2-xw6vvd,scBMweco-m9rNBVw,hV1<v9>wMwodcbzczxxbbxt% *2jhll5. @ljibfaxs07=<:-=-<<$<1##sxfcxxcccMcy78xxbbzzzxafkaaaxe$=cxb8==cw9xzzkkzfakkpfde7#@+<llkxlbxbli0=%.%%.O**%  bcBbbvBvbb",
"cMMNCMMcMNB2,cr,1Bw;bv22vdtc&*x&-mX3MgCN32V1<B9<<gg.2czczzzbfzbs  dxu1,tl2<sjaajaaf7=+%O8:$$-+%++O+ycxxccccccg9q8gcMvcccccccccbxy:<xfxw:8d:=sxxxazzakiye08O   %lxxkxbvvb9$O19ttw8-9o @vvvvBbbvBb",
"cMMNMMMMVNM32MdsbBw,vv32B<&c*&g&-mX8<XmN52V1-Bd=-cc&-cxxdxbfzzxxw2kaw7=ujjlhkaakaak<*O.<-$=++++$@=txcxcxfcccccq8#8BMMBMMccccxcgMe:<faxe=88+Oixkxkxkhi808=%    ,zxkblbvvx+ 1g==*+. @g>bvvbBvvvvBv",
"MMBNCMMCNMg6sg;,gBw,MB53M,&g&-gX-cX3<XmZ32V1<Mc1<9v-oxxzzzxfzazxxxad08rt9891tkaaafak<%1f:==++=xtwdcfxfcccccccMe8>7MMBMMvBcMccgnn0#7cfc0=+%.=xxxkxfkxs+OO.  o<tlzxxzzbbbv#ov+  O*.%zbvvvvvvBvBvBB",
"MMMNMCMNNNg;igw<gVw<MMz,c-&f&*fX*cX3<XmN,4V1<vc<=wv1.dxzzzxxzzxxfds0=OO==@O +laaxakd$Op9==-=O<xr$8cfxzccccxccMBe78cNNBMMcMccc07:=$<ccc8$1w9zxzxxfkzkx1@O  2cvblzbbbbcvccvvvt8wf>%tBbbbBvBvBCBBBB",
"MMMNMMMCNVs;zg,-mBw-Mcc,s<Xf&&cX*MX3<XMe1vB1-vc<<yB2Xtbzzfxfzxd0e08$   o    *likkax8O*kw=$+**#8e$8xxccxcccccccMn:8MMMMMMMvvcv0O$=+=cbx8+svcxbbxxxxxkxxx@ <zwzbxbbbvbcbvvMvMNVM0$OO%%yBBBBCBVBBVB",
"MMCMMMMMCNs;Mg;2NNw,MMx,f,&c*-fo*MX<<Xmg,bB1>vc<<rcwXtcxzxfxxd+%%O..@-2@ +5skkiikx9$.<f=O%O=w=7=@sxcxccxxcccmmme7gBBBBMMMMMcvcygy==ccf8=bbxxxkxxxzxkkxw Os+=1bbbbbcccvvccBye=+...   yBBCBVVCVVVV",
"MCMNMMMcCMs;fc,1MBw=BM21N-Xm&&mX*M.-=XgN<rB1-vcw@9vwXtbxzzfxfz1@<@ oubtO slkakkiaa#<O1z>1<O@+@=$=sbbbxbcbcbmmmn0eCmmmCMMccccccvMb97gcnqwtikxxkxakxxkxb# 5hO##<gvvcvvcvcvB9%  ..@. >tBBVBVVVBVVVV",
"MMMMMMCccBs&gd-;bVw-cMfgNw-C=<M-8N*wr-mNbcB1<vg<wsv1Xtxxffbzdfbxx2..+<=.1kkkakikaasi+1twrf+=<>O+$=wMcbfccgnnyeq7780077cMMMMcMcvgm087q87=#$<bbcbxbxzzb8.1vb2.O+=qzvccvvBcBy>>9yVVO BVBVBVVVVVVVZV",
"MMMMMccccca&yM-<xVw<BcNnnnnnnnnMZnnnnnnnyMB<=Bbt-wv-Xdxxfxxxzffakl<   . o+>skkhiakli@@OO$$+swO$+O$$8bfccve78:#####>##=gbbbbbbcz7>$$$$OOO.%8cxcbcbbzv9 >bxxv>  OOO>cBbCCBBBVVVVVC OVBVBVVVVVVVVVV",
"NNMMMMCccMc-rCw;sVw-MMCqDDDDDFDnDFFDFDDFDyB<<vd=>ic**fbxfxxfzhkxi>. oO.    okihhhkhh# %<# O+ >at$OOOtccccy7$$::#800eeycbbbbzxcd7$@###==##>xxcbxccbvw%<vxbbbB<     @BcBBBBBBVSey# eVVVVVVVVVZVZZZ",
"NNMMMMcMcMM;,Vw&1Vw=MMyryereee0DF0eetwtyytB<<vct<ff+3ffxzxxxfkx1@@1skbit>o.*lhixzaax1.<vt1*>tkxbz1>1dbcbbccyygcvBBvBBBcvcvMccccMzgccvvvvvvbccbcvbv9O1vvvbbccBd>  .8BBBBBVBBVy$% >SVVVVVVCVZVVZZZ",
"NVBNMCMcNNVr-MyeyVw>BM=.XXXXXX<Sg+XXXXXX.>B1-vcvccrXycxxhzxazfktibxxkhkxblkxxhizxkkiltuajkxkkjaahkkkkiaahibbbxdzkhzazaazzzkhafzkxxxxzzxzzhxzxxxxvt$wBbcvvbMvvBVc9zVBBBVBVVBVC%O0VSVVVZZVVVZZVZZZ",
"MBNMNMMMMSNg&sVNNNw&mVw<8889;X-Vc&X,1311<ev>>vbcfv<&cxxxfzxfxikxxfhhkzaalkhkkaiafkaiikjhapkkiakkaiaipjakaiaikaikkkaaakhiakahakkjzzxkzzxkzkkxxbxbbxzvcbcccCcBMcCBVCBCVBBCVBVVSZVZZVVVVZZVVZZZZZZZ",
"NNNNBBBCMNNN&,NNmNC<&1NVNMMB2X=NM&XdBMBvBt&@tcxbbgX<vfxxhxxxzhfkkaazxahxkxzfxxxzixkhhakhaakkihaahhkjhikakhikkkahakhikkkafxxaxzhxhxxzzkxkxxxzzxcbbvcbcvcMcBMBVCVBVBBNNVVVVVVVZVZVVZZVZVZVZVZZZZZA",
"NNNVNVNMMNMVrocNCCBVy**wBMcN2 -VMoXeMcBg-&9bvfccM1ocxxcfxxzxfxhfaxkxkhzlxkzkxxhzkfxaxaazhhahhhhhijjkiihhhhzhxhzkxkaxxhkzxxxxvbxfblxbzkxxxbxbbbcccMMcMMMBvBBBNBCVNVVVVCVVVVZVVZZZZVZZZZZZZZZZZAAZ",
"NVVNNNNMNMNCN&<VcCCBVV9+=gVBe=wBM>-gVM8+=cvcxcccco-BxcxfxxxxxfxxxxxbxxzbxxzxzzhbfxxhikxhjakhhhhhhhakkhahhhlhkzhkkfhxhzxxxxxxzabxxxbxxbxbxxbcbcMvbccvvMBMCBBCNNNBBBVVVVVVSZVZZZVZVZZZZZZZZZAAZZAA",
"NNVNNNNNNNNMVtXyNMBMMBVM<+1MVNNMBVZZe**yBcfdccxB-ofbfxfxbxxbfbxxxxxxbxbzxxxkxhlzxakzxkhhzahhhhhhhhkakahklzzlhxkxxxzxlzzbzxxxxcxbzxbbxxbxvbxcbbbbMcccMBMCBVCBBNVVNNVZVVVZZVVZVZSZZZZVZZZAAAZZZAAZ",
"VNNVVVNNNMMNNV*+BBCy9CVBVd*+wNBMNVm=+wBMcce>dcvw.wvfxcxccxcfbxxzxbxzxblbxxkbxxblxxxzffllkxklhhllxkxakkkkllzlxlzxxxxxbbbbcxxxxxxcvvbbvvbbxxvvvBBvBBMBBBBBVVVBVBVBVVZVVVSZVZZZZZZAZZAZZZZZZZZZZAAZ",
"VNSNNVNVVNNNNNC%=Zy>emMNMNVw+=yBB<+7NVMcccy99cf.-Bbbczbbxxxxxbxxbyzbyybtftbdzttbtdtdlxtsatdtltthtelzttt9tht9tzbtwzzty99tydbddxbbe9bbyt0dvceewyye0bByeCVyCCCnCVnVVynSSnSZZS0CAZSeCASSZSSZZZAZAAAA",
"VVNVVVVNNNNNNNVyX=C9gNMNNBBVM8+=*=mZNMMMMccfzfo+Bcccbcxxcxxxxbccx$9v9#b#w=v999>b>s>wbb>ti>t$h999>>tz>9#>7t#>#9t#>>y>t>#79>b>8bx9#>>v#>>tvd>$>t#>>ne##8n>C09q7C#Vq>#0S#CAS>7#nS#7#n7nS#SAAAAAAAAA",
"NVVVNNSVVVNVNNBVeX-NNMmw9nVMNZg<wVVMMBy8MccMfo@fcccfxcbcbcbccbcct$>v9Ot7t>z9998v>d7tbb7th7t$199w999t>t>lbh>b9>9>z9t>bz>bb>7>dcx#yb#z>ycvbvc7Bb>CBB>yV7y7C000On7n#SS#S7SA07Aqq0qAnnn#70AAAAAAAAAA",
"SZZVSVVNVSNVVVNMZeo*MVm:7yBNgyNVNmyCMNy>9cBeo+cvccccxcbbcBccMbfv97>b9#>>t###991b>d>wbz>td>t#>>997t719y##>y#9#tz>$9z>zt>bbtO9vbz>bb>y>#7gcMg>bn##>m>mBVn###e0#77n7SS7n7nA00Anq00nqnA7#SAAZAZAAAAA",
"ZZSNZNNSZVSNNVNNNZmoorMg8CNNm9MMMy9yMMcggg=.=ccccbcvbgccccgcccbc>##t897#t>b9999b>y>tvb>yz>t>9O998b##yy>bbd#7#ytht#y7gg>bbb>yvbg#bv#y7ybbccm7cg7CCB>yZgn7S0000:#n7SS#S7SA0qAn7qqS#qA0qAAAAAAAAAAA",
"NVNZZSZVVZZNVNNVNNNN:.-eMVVN08MMM07gNBNM9+owMNMMcMcCcvcccbccccvy#g97799$y#B99y#e#b>0bv8>8>y>z#99>v>#ct>tty#v879>t#d#by=bbz>yvbv779>c>yBMCMb>Cm#enBq70#y:V007y0$S70q7S#nnn#n#0S#n7qAnqAAAAAAAAAAA",
"VZZZZSVSSZSZVNVVVZSZZy*.&9gMgmNVVVmNce=oX<gBMBNcccccvccccccccccy0By99eb9y9cy9B8#ev9ycbz>>dy9b9te9vt9By>>>y9by9v8#yc8gg9ccb8gccvC7>dM9yBvBBM9NM87>yCq>nC0ZenenSqSC77SA777An70AAn77nAn0AAAAAAAAAAA",
"NSVZSVSZVVVVVZNSNZZVNSZy=oXo=<weww-*oX*<cBMMcMMMccMvMccMcbccMcccvbcvvBCbcMccvvvvbbbbcbvvvcbcCbbbbvbbbcccvvbvccbMvvbBcvvcMcMccccvBvMMBbBCBMMMNMNVSVVVZZZVZZZZZZZZSAAASAAAAAAAAAAAAAAAAAAAAAAAAAAA",
"ZSNZSZZVZVNSZSNVVZAZVNNZVMe<+X....X*8gMBBMBMMMMcccMcccccMvcccccccMMbvCvbcccccccbccccbccccgccbccbvCcbbccbbbbccCbbbbbCccvcccccvccMvcMNMBCMMBBNNNNNVSVVSVZZZZZZSZZZSASAASZAAAASAAAAAAAAAAAAAAAAAAAA",
"ZZVZZZZSSZZZSVSVSZSSZNVVVVVVNmmygmmNVNMMMMMMMMMMvMMBMMMMCcMCMcMMMMccCcMcMcMcccCvccCvMbcccbbcMccCCbccvCccCcccccMcCbvvccMMMcMMCMMMMMMMMMBBNNBNVNVVVSSNZZZZZSZZZAZZZZAZAAAZAAAASAAAAAAAAAAAAAAAAAAA",
"ZSZSZVZZVSSVVSVVVVVNNVVNVNNNVVVNNVNNNMMMMMMMNBMMMMBMMMvMBMMMMBMMMMvCcBMccMMcCcMccMccvcCcvBMcccMcvcMcCcvcvMccMMcbccBccMMMMMcMMMMMNMMBNBNNNNNVVSVVZVSZSZZSZSZZZZZAAZAAAZAASAAAAAAAAAAAAAAAAAAAAAAA",
"ZZZZSSZZVSSZZZVZSVVSVVNVVVVVNNNNNNNNBNNMBMMBNMNNMMMMMMMMMMMMMMvMMMMMBCMMMBccMcMcMcMCccvCMMcBcMcvMvcMcBMccBMvcBcBCMMBBcMBcMMMBMBBBMNNMNBNVNNVVVVSZSVZSZZZZZAZSAAZZAASAAAZAAAAAAAAAAAAAAAAAAAAAAAA"
};
